<?xml version="1.0" encoding="UTF-8"?>
<svg xmlns="http://www.w3.org/2000/svg" xmlns:xlink="http://www.w3.org/1999/xlink" id="Layer_1" data-name="Layer 1" viewBox="0 0 347.76 83">
  <defs>
    <style>
      .cls-1 {
        fill: none;
      }

      .cls-2, .cls-3 {
        fill: #77787b;
      }

      .cls-4 {
        fill: #ffb71b;
      }

      .cls-3 {
        fill-rule: evenodd;
      }

      .cls-5 {
        clip-path: url(#clippath);
      }
    </style>
    <clipPath id="clippath">
      <rect class="cls-1" width="347.76" height="83"></rect>
    </clipPath>
  </defs>
  <g class="cls-5">
    <g>
      <path class="cls-4" d="M261.84,82.78c-1.29,0-2.22-.73-2.22-1.92,0-1.28.83-1.83,1.66-2.38.92-.64,1.75-1.28,1.75-2.65V27.47c0-1.74-1.02-2.47-1.94-3.11-.83-.64-1.66-1.28-1.66-2.56,0-1.19.92-2.1,2.22-2.1h6.46c1.85,0,3.05,1.28,3.05,3.2v3.75c3.6-5.03,9.14-7.86,15.79-7.86,12.28,0,20.22,9.51,20.22,23.86s-8.4,24.59-21.33,24.59c-6.46,0-11.54-2.56-14.68-6.58v15.18c0,1.37.83,2.01,1.76,2.65.83.55,1.66,1.1,1.66,2.38,0,1.19-.83,1.92-2.12,1.92h-10.62ZM283.35,23.35c-5.36,0-9.97,3.29-12.19,8.69v19.02c2.4,7.22,7.48,12.8,14.13,12.8,8.03,0,13.76-7.77,13.76-18.19s-6.19-22.31-15.7-22.31Z"></path>
      <path class="cls-4" d="M225.49,67.24c-8.49,0-14.41-5.3-14.41-13.9v-25.87c0-1.74-1.01-2.47-1.94-3.11-.83-.64-1.66-1.28-1.66-2.56,0-1.19.92-2.1,2.21-2.1h6.46c1.85,0,3.05,1.55,3.05,3.47v29.71c0,5.76,3.97,9.42,9.7,9.42s10.62-3.2,13.57-8.23v-26.6c0-1.74-1.02-2.47-1.94-3.11-.83-.64-1.66-1.28-1.66-2.56,0-1.19.83-2.1,2.12-2.1h6.46c1.94,0,3.14,1.28,3.14,3.2v36.3c0,1.74,1.02,2.47,2.03,3.2.83.55,1.57,1.1,1.57,2.29,0,1.65-2.12,2.56-4.9,2.56-4.25,0-6.83-2.56-6.83-6.4v-1.83c-4.16,5.12-10.34,8.23-16.99,8.23Z"></path>
      <path class="cls-2" d="M191.29,67.24c-6.56,0-10.9-4.21-10.9-10.51V23.35h-5.63c-1.11,0-1.85-.73-1.85-1.83,0-1.37,1.2-1.74,2.86-2.1,4.89-1.19,7.3-3.02,8.86-8.14.46-1.65.92-2.83,2.22-2.83,1.02,0,1.66.73,1.66,1.74v9.51h11.36c1.2,0,1.85.73,1.85,1.83,0,1.19-.65,1.83-1.85,1.83h-11.36v32.82c0,3.66,2.12,6.03,5.36,6.03,1.94,0,3.42-.82,4.71-1.55.92-.55,1.75-1.01,2.4-1.01.74,0,1.29.55,1.29,1.37,0,2.29-4.62,6.22-10.99,6.22Z"></path>
      <path class="cls-2" d="M150.47,67.24c-12.19,0-19.95-5.94-19.95-11.52,0-2.38,1.39-3.84,3.88-3.84,3.05,0,3.97,2.1,4.99,4.66,1.38,3.47,3.32,7.5,11.27,7.5,7.2,0,12.01-3.38,12.01-8.59,0-6.03-6.65-7.77-13.76-9.6-8.22-2.1-17.08-4.39-17.08-13.71,0-8.41,7.02-13.35,18.75-13.35,10.16,0,17.64,4.21,17.64,10.33,0,2.56-1.48,3.47-3.42,3.47-2.68,0-3.51-1.83-4.43-4.02-1.29-3.02-2.86-6.58-10.07-6.58s-10.99,3.2-10.99,7.86c0,6.13,6.65,7.95,13.85,9.78,8.22,2.1,16.99,4.66,16.99,13.81s-8.13,13.81-19.67,13.81Z"></path>
      <path class="cls-2" d="M112.32,66.32c-1.29,0-2.22-.73-2.22-1.92,0-1.28.83-1.83,1.66-2.38.92-.64,1.76-1.28,1.76-2.65v-31.91c0-1.74-1.02-2.47-1.94-3.11-.83-.64-1.66-1.28-1.66-2.56,0-1.19.92-2.1,2.22-2.1h6.46c1.85,0,3.05,1.28,3.05,3.2v36.48c0,1.37.83,2.01,1.75,2.65.83.55,1.66,1.1,1.66,2.38,0,1.19-.83,1.92-2.12,1.92h-10.62Z"></path>
      <path class="cls-4" d="M111.67,7.08c0,3.11,2.12,5.21,5.36,5.21s5.36-2.1,5.36-5.21-2.12-5.21-5.36-5.21-5.36,2.1-5.36,5.21Z"></path>
      <path class="cls-2" d="M53.81,66.32c-1.11,0-2.03-.46-2.4-1.55l-13.02-38.12c-.46-1.28-1.48-1.83-2.49-2.38-1.11-.64-2.03-1.19-2.03-2.65,0-1.19.92-1.92,2.22-1.92h11.17c1.29,0,2.22.73,2.22,1.92,0,1.28-.74,1.83-1.57,2.38-.83.55-1.57,1.28-1.11,2.65l9.79,30.81,12.28-36.2c.37-1.1,1.2-1.55,2.31-1.55h1.94c1.11,0,1.94.46,2.31,1.65l11.82,35.84,10.07-30.54c.46-1.37-.37-2.1-1.29-2.65-.92-.55-1.75-1.1-1.75-2.38,0-1.19.83-1.92,2.12-1.92h7.48c1.29,0,2.12.73,2.12,1.92,0,1.37-1.02,2.1-2.03,2.65-1.02.55-1.94,1.1-2.4,2.38l-13.11,38.12c-.37,1.1-1.2,1.55-2.4,1.55h-1.85c-1.2,0-2.03-.46-2.4-1.55l-11.82-34.83-11.91,34.83c-.37,1.1-1.2,1.55-2.31,1.55h-1.94Z"></path>
      <path class="cls-2" d="M19.33,67.24c-6.56,0-10.9-4.21-10.9-10.51V23.35H2.8c-1.11,0-1.85-.73-1.85-1.83,0-1.37,1.2-1.74,2.86-2.1,4.89-1.19,7.3-3.02,8.87-8.14.46-1.65.92-2.83,2.22-2.83,1.02,0,1.66.73,1.66,1.74v9.51h11.36c1.2,0,1.85.73,1.85,1.83,0,1.19-.65,1.83-1.85,1.83h-11.36v32.82c0,3.66,2.12,6.03,5.36,6.03,1.94,0,3.42-.82,4.71-1.55.92-.55,1.75-1.01,2.4-1.01.74,0,1.29.55,1.29,1.37,0,2.29-4.62,6.22-10.99,6.22Z"></path>
      <path class="cls-3" d="M330.52.73h-5.27v16.13h-16.29v5.22h16.29v16.13h5.27v-16.13h16.29v-5.22h-16.29V.73Z"></path>
    </g>
  </g>
</svg>
